<?xml version="1.0" encoding="utf-8"?>
<!-- Generator: Adobe Illustrator 21.0.1, SVG Export Plug-In . SVG Version: 6.00 Build 0)  -->
<svg version="1.1" id="Layer_1" xmlns="http://www.w3.org/2000/svg" xmlns:xlink="http://www.w3.org/1999/xlink" x="0px" y="0px"
	 viewBox="0 0 230 230" style="enable-background:new 0 0 230 230;" xml:space="preserve">
<style type="text/css">
	.st0{enable-background:new    ;}
	.st1{fill:#FFFFFF;enable-background:new    ;}
</style>
<path class="st0" d="M115,1C52,1,1,52,1,115s51,114,114,114s114-51,114-114S178,1,115,1z"/>
<path class="st1" d="M118.8,161.6c-0.1,0.2-0.2,0.4-0.3,0.5c-4.9,5-9.8,9.8-14.8,14.8c-0.2,0.1-0.4,0.3-0.6,0.4
	c-2,1.4-3.9,3.1-6,4.2c-12.7,6.7-25.3,6.1-37.5-1.7c-1.4-0.8-2.5-1.9-3.9-2.9c-0.9-0.9-1.9-1.9-2.8-2.8c-0.1-0.2-0.3-0.5-0.4-0.6
	c-1.3-2-3.1-3.9-4.2-6c-6.7-12.8-6.1-25.4,1.7-37.6c0.9-1.4,1.9-2.5,2.9-3.9c9.8-9.6,19.3-19.1,28.8-28.7c1.2-0.8,2.4-1.8,3.6-2.6
	c12.1-7.7,24.8-8.2,37.4-1.6c2.9,1.5,5.5,3.5,7.7,5.8c3.6,3.6,3.9,8.8,0.5,12.6c-3,3.4-8,4.1-11.8,1.4c-1.5-1.1-3-2.5-4.6-3.6
	c-7-4.3-16.2-3.3-22.1,2.5c-8.5,8.6-17.1,17-25.6,25.6c-6.6,6.7-6.9,17.3-0.9,24.5c6,7,16.6,8.3,24.2,2.8c0.8-0.6,1.6-1.3,2.3-2
	c4.1-4.1,8.1-8.1,12.2-12.2c3.2-3.2,7.6-4,11.3-1.6C120.7,151.4,122,157.5,118.8,161.6z"/>
<path class="st1" d="M179.9,100.2c-0.9,1.3-1.9,2.5-2.9,3.9c-9.7,9.6-19.3,19.1-28.7,28.7c-1.2,0.8-2.4,1.8-3.6,2.6
	c-12.1,7.7-24.8,8.2-37.4,1.6c-2.9-1.5-5.5-3.5-7.7-5.8c-3.6-3.6-3.9-8.8-0.5-12.6c3-3.4,8-4,11.8-1.3c1.5,1.1,3,2.5,4.6,3.6
	c7,4.3,16.2,3.3,22.1-2.5c8.6-8.5,17.1-17,25.6-25.6c6.6-6.7,6.9-17.3,0.8-24.5c-5.9-7-16.6-8.3-24.2-2.8c-0.8,0.6-1.6,1.3-2.3,2
	c-4.1,4.1-8.1,8.1-12.2,12.2c-3.2,3.2-7.7,4-11.3,1.6c-4.4-2.6-5.7-8.7-2.5-12.9c0.1-0.2,0.2-0.4,0.3-0.5c4.9-5,9.8-9.8,14.8-14.8
	c0.2-0.1,0.5-0.3,0.6-0.4c2-1.3,3.9-3.1,5.9-4.2c12.8-6.7,25.4-6.1,37.6,1.7c1.4,0.8,2.6,1.9,3.9,2.9c0.9,0.9,1.9,1.9,2.8,2.8
	c0.1,0.2,0.3,0.4,0.4,0.6c1.4,2,3.1,3.9,4.2,6C188.3,75.3,187.8,87.9,179.9,100.2z"/>
</svg>
